<svg width="172" height="26" viewBox="0 0 172 26" fill="none" xmlns="http://www.w3.org/2000/svg">
<g clip-path="url(#clip0_1_2)">
<path d="M38.3262 22.5142V11.6051H41.2097V13.5298H41.3375C41.5648 12.8906 41.9436 12.3863 42.4739 12.017C43.0042 11.6477 43.6387 11.463 44.3773 11.463C45.1254 11.463 45.7622 11.6501 46.2878 12.0241C46.8134 12.3934 47.1638 12.8953 47.3389 13.5298H47.4526C47.6751 12.9048 48.0776 12.4053 48.66 12.0312C49.2471 11.6524 49.9407 11.463 50.7409 11.463C51.7589 11.463 52.5852 11.7874 53.2196 12.436C53.8588 13.08 54.1784 13.9938 54.1784 15.1775V22.5142H51.16V15.7741C51.16 15.168 50.999 14.7135 50.677 14.4105C50.355 14.1074 49.9526 13.9559 49.4696 13.9559C48.9204 13.9559 48.4919 14.1311 48.1841 14.4815C47.8764 14.8271 47.7225 15.284 47.7225 15.8522V22.5142H44.7892V15.7102C44.7892 15.1751 44.6353 14.749 44.3276 14.4318C44.0246 14.1145 43.6245 13.9559 43.1273 13.9559C42.7911 13.9559 42.4881 14.0411 42.2182 14.2116C41.9531 14.3773 41.7424 14.6117 41.5861 14.9147C41.4299 15.213 41.3517 15.5634 41.3517 15.9659V22.5142H38.3262ZM61.0973 22.7272C59.9941 22.7272 59.04 22.4929 58.2351 22.0241C57.4349 21.5506 56.817 20.8925 56.3814 20.0497C55.9458 19.2021 55.728 18.2197 55.728 17.1022C55.728 15.9753 55.9458 14.9905 56.3814 14.1477C56.817 13.3001 57.4349 12.642 58.2351 12.1733C59.04 11.6998 59.9941 11.463 61.0973 11.463C62.2005 11.463 63.1523 11.6998 63.9524 12.1733C64.7574 12.642 65.3776 13.3001 65.8132 14.1477C66.2488 14.9905 66.4666 15.9753 66.4666 17.1022C66.4666 18.2197 66.2488 19.2021 65.8132 20.0497C65.3776 20.8925 64.7574 21.5506 63.9524 22.0241C63.1523 22.4929 62.2005 22.7272 61.0973 22.7272ZM61.1115 20.3835C61.6134 20.3835 62.0325 20.2414 62.3686 19.9573C62.7048 19.6685 62.9581 19.2755 63.1286 18.7784C63.3038 18.2812 63.3914 17.7154 63.3914 17.0809C63.3914 16.4465 63.3038 15.8806 63.1286 15.3835C62.9581 14.8863 62.7048 14.4933 62.3686 14.2045C62.0325 13.9157 61.6134 13.7713 61.1115 13.7713C60.6049 13.7713 60.1788 13.9157 59.8331 14.2045C59.4922 14.4933 59.2342 14.8863 59.059 15.3835C58.8885 15.8806 58.8033 16.4465 58.8033 17.0809C58.8033 17.7154 58.8885 18.2812 59.059 18.7784C59.2342 19.2755 59.4922 19.6685 59.8331 19.9573C60.1788 20.2414 60.6049 20.3835 61.1115 20.3835ZM71.0595 16.2073V22.5142H68.034V11.6051H70.9175V13.5298H71.0453C71.2868 12.8953 71.6916 12.3934 72.2598 12.0241C72.828 11.6501 73.5169 11.463 74.3266 11.463C75.0842 11.463 75.7447 11.6287 76.3081 11.9602C76.8716 12.2916 77.3095 12.7651 77.622 13.3806C77.9345 13.9914 78.0908 14.7206 78.0908 15.5681V22.5142H75.0652V16.1079C75.07 15.4403 74.8995 14.9195 74.5539 14.5454C74.2082 14.1666 73.7324 13.9772 73.1263 13.9772C72.7191 13.9772 72.3593 14.0648 72.0468 14.24C71.739 14.4152 71.4975 14.6709 71.3223 15.0071C71.1519 15.3385 71.0643 15.7386 71.0595 16.2073ZM89.1521 14.7159L86.3822 14.8863C86.3348 14.6496 86.233 14.4365 86.0768 14.2471C85.9205 14.053 85.7146 13.8991 85.4589 13.7855C85.208 13.6671 84.9073 13.6079 84.5569 13.6079C84.0882 13.6079 83.6928 13.7073 83.3708 13.9062C83.0489 14.1003 82.8879 14.3608 82.8879 14.6875C82.8879 14.9479 82.992 15.168 83.2004 15.348C83.4087 15.5279 83.7662 15.6723 84.2728 15.7812L86.2473 16.1789C87.3079 16.3967 88.0986 16.7471 88.6194 17.2301C89.1402 17.713 89.4007 18.3475 89.4007 19.1335C89.4007 19.8484 89.19 20.4758 88.7686 21.0156C88.3519 21.5554 87.779 21.9768 87.0498 22.2798C86.3254 22.5781 85.4897 22.7272 84.5427 22.7272C83.0986 22.7272 81.948 22.4266 81.091 21.8252C80.2387 21.2192 79.7392 20.3953 79.5924 19.3536L82.5683 19.1974C82.6582 19.6377 82.876 19.9739 83.2217 20.2059C83.5673 20.4332 84.01 20.5468 84.5498 20.5468C85.0801 20.5468 85.5063 20.445 85.8282 20.2414C86.1549 20.0331 86.3206 19.7656 86.3254 19.4389C86.3206 19.1643 86.2046 18.9393 85.9774 18.7642C85.7501 18.5842 85.3997 18.4469 84.9262 18.3522L83.037 17.9758C81.9717 17.7627 81.1786 17.3934 80.6578 16.8679C80.1417 16.3423 79.8836 15.6723 79.8836 14.8579C79.8836 14.1572 80.073 13.5535 80.4518 13.0468C80.8353 12.5402 81.3727 12.1496 82.064 11.875C82.76 11.6003 83.5744 11.463 84.5072 11.463C85.885 11.463 86.9693 11.7542 87.76 12.3366C88.5555 12.919 89.0195 13.7121 89.1521 14.7159ZM96.7084 11.6051V13.8778H90.1388V11.6051H96.7084ZM91.6303 8.99143H94.6558V19.1619C94.6558 19.4412 94.6985 19.659 94.7837 19.8153C94.8689 19.9668 94.9873 20.0733 95.1388 20.1349C95.2951 20.1965 95.475 20.2272 95.6786 20.2272C95.8206 20.2272 95.9627 20.2154 96.1047 20.1917C96.2468 20.1633 96.3557 20.142 96.4314 20.1278L96.9073 22.3792C96.7558 22.4266 96.5427 22.481 96.2681 22.5426C95.9934 22.6089 95.6596 22.6491 95.2666 22.6633C94.5375 22.6917 93.8983 22.5947 93.349 22.3721C92.8045 22.1496 92.3808 21.8039 92.0777 21.3352C91.7747 20.8664 91.6255 20.2746 91.6303 19.5596V8.99143ZM103.134 22.7272C102.012 22.7272 101.046 22.5 100.236 22.0454C99.431 21.5861 98.8108 20.9375 98.3752 20.0994C97.9396 19.2566 97.7218 18.2599 97.7218 17.1093C97.7218 15.9872 97.9396 15.0023 98.3752 14.1548C98.8108 13.3072 99.4239 12.6467 100.215 12.1733C101.01 11.6998 101.943 11.463 103.013 11.463C103.733 11.463 104.403 11.579 105.023 11.811C105.648 12.0383 106.192 12.3816 106.656 12.8409C107.125 13.3001 107.49 13.8778 107.75 14.5738C108.011 15.2651 108.141 16.0748 108.141 17.0028V17.8338H98.9291V15.9588H105.293C105.293 15.5232 105.198 15.1373 105.009 14.8011C104.819 14.4649 104.557 14.2021 104.22 14.0127C103.889 13.8186 103.503 13.7215 103.063 13.7215C102.603 13.7215 102.196 13.8281 101.841 14.0411C101.491 14.2495 101.216 14.5312 101.017 14.8863C100.818 15.2367 100.717 15.6273 100.712 16.0582V17.8409C100.712 18.3806 100.811 18.847 101.01 19.24C101.214 19.633 101.5 19.936 101.869 20.1491C102.239 20.3622 102.677 20.4687 103.183 20.4687C103.52 20.4687 103.827 20.4214 104.107 20.3267C104.386 20.232 104.625 20.0899 104.824 19.9005C105.023 19.7111 105.174 19.4791 105.279 19.2045L108.077 19.3892C107.935 20.0615 107.644 20.6486 107.203 21.1505C106.768 21.6477 106.204 22.0359 105.513 22.3153C104.826 22.5899 104.033 22.7272 103.134 22.7272ZM109.715 22.5142V11.6051H112.648V13.5085H112.762C112.961 12.8314 113.295 12.32 113.764 11.9744C114.232 11.624 114.772 11.4488 115.383 11.4488C115.534 11.4488 115.698 11.4583 115.873 11.4772C116.048 11.4962 116.202 11.5222 116.335 11.5554V14.24C116.192 14.1974 115.996 14.1595 115.745 14.1264C115.494 14.0932 115.264 14.0767 115.056 14.0767C114.611 14.0767 114.213 14.1737 113.863 14.3679C113.517 14.5572 113.243 14.8224 113.039 15.1633C112.84 15.5042 112.741 15.8972 112.741 16.3423V22.5142H109.715Z" fill="white"/>
<path d="M122.521 22.7698C121.83 22.7698 121.203 22.6396 120.639 22.3792C120.076 22.1141 119.628 21.7329 119.297 21.2358C118.966 20.7339 118.8 20.1278 118.8 19.4176C118.8 18.7926 118.923 18.2859 119.169 17.8977C119.415 17.5047 119.744 17.1969 120.156 16.9744C120.568 16.7518 121.023 16.5861 121.52 16.4772C122.022 16.3636 122.526 16.2736 123.033 16.2073C123.696 16.1221 124.233 16.0582 124.645 16.0156C125.062 15.9682 125.365 15.8901 125.554 15.7812C125.748 15.6723 125.845 15.4829 125.845 15.213V15.1562C125.845 14.4554 125.654 13.9109 125.27 13.5227C124.891 13.1344 124.316 12.9403 123.544 12.9403C122.744 12.9403 122.117 13.1155 121.662 13.4659C121.207 13.8162 120.888 14.1903 120.703 14.588L119.112 14.0198C119.396 13.357 119.775 12.8409 120.249 12.4715C120.727 12.0975 121.248 11.8371 121.811 11.6903C122.379 11.5388 122.938 11.463 123.487 11.463C123.838 11.463 124.24 11.5056 124.695 11.5909C125.154 11.6714 125.597 11.8394 126.023 12.0951C126.454 12.3508 126.811 12.7367 127.095 13.2528C127.379 13.7689 127.521 14.4602 127.521 15.3267V22.5142H125.845V21.0369H125.76C125.646 21.2736 125.457 21.5269 125.192 21.7968C124.927 22.0667 124.574 22.2964 124.134 22.4858C123.693 22.6751 123.156 22.7698 122.521 22.7698ZM122.777 21.2642C123.44 21.2642 123.999 21.134 124.453 20.8735C124.913 20.6131 125.258 20.2769 125.49 19.865C125.727 19.4531 125.845 19.0198 125.845 18.5653V17.0312C125.774 17.1164 125.618 17.1946 125.377 17.2656C125.14 17.3319 124.865 17.3911 124.553 17.4431C124.245 17.4905 123.944 17.5331 123.651 17.571C123.362 17.6041 123.127 17.6325 122.948 17.6562C122.512 17.713 122.105 17.8054 121.726 17.9332C121.352 18.0563 121.049 18.2433 120.817 18.4943C120.59 18.7405 120.476 19.0767 120.476 19.5028C120.476 20.0852 120.691 20.5255 121.122 20.8238C121.558 21.1174 122.109 21.2642 122.777 21.2642ZM134.3 22.7414C133.391 22.7414 132.588 22.5118 131.892 22.0525C131.196 21.5885 130.652 20.9351 130.259 20.0923C129.866 19.2447 129.669 18.2433 129.669 17.088C129.669 15.9422 129.866 14.9479 130.259 14.1051C130.652 13.2623 131.199 12.6112 131.899 12.1519C132.6 11.6927 133.41 11.463 134.328 11.463C135.039 11.463 135.6 11.5814 136.012 11.8181C136.428 12.0501 136.746 12.3153 136.963 12.6136C137.186 12.9072 137.359 13.1486 137.482 13.338H137.624V7.96871H139.3V22.5142H137.681V20.838H137.482C137.359 21.0369 137.184 21.2878 136.956 21.5909C136.729 21.8892 136.405 22.1567 135.983 22.3934C135.562 22.6254 135.001 22.7414 134.3 22.7414ZM134.527 21.2358C135.2 21.2358 135.768 21.0606 136.232 20.7102C136.696 20.3551 137.049 19.865 137.29 19.24C137.532 18.6103 137.652 17.8835 137.652 17.0596C137.652 16.2452 137.534 15.5326 137.297 14.9218C137.06 14.3063 136.71 13.8281 136.246 13.4872C135.782 13.1415 135.209 12.9687 134.527 12.9687C133.817 12.9687 133.225 13.151 132.752 13.5156C132.283 13.8754 131.93 14.3655 131.694 14.9858C131.461 15.6013 131.345 16.2926 131.345 17.0596C131.345 17.8361 131.464 18.5416 131.701 19.1761C131.942 19.8058 132.297 20.3077 132.766 20.6818C133.239 21.0511 133.827 21.2358 134.527 21.2358ZM142.203 22.5142V11.6051H143.822V13.3096H143.964C144.191 12.7272 144.558 12.2751 145.065 11.9531C145.571 11.6264 146.18 11.463 146.89 11.463C147.61 11.463 148.209 11.6264 148.687 11.9531C149.17 12.2751 149.546 12.7272 149.816 13.3096H149.93C150.209 12.7462 150.628 12.2987 151.187 11.9673C151.746 11.6311 152.416 11.463 153.197 11.463C154.172 11.463 154.97 11.7684 155.59 12.3792C156.211 12.9853 156.521 13.9299 156.521 15.213V22.5142H154.845V15.213C154.845 14.4081 154.624 13.8328 154.184 13.4872C153.744 13.1415 153.225 12.9687 152.629 12.9687C151.862 12.9687 151.267 13.2007 150.846 13.6647C150.425 14.124 150.214 14.7064 150.214 15.4119V22.5142H148.509V15.0426C148.509 14.4223 148.308 13.9228 147.906 13.544C147.503 13.1605 146.985 12.9687 146.35 12.9687C145.915 12.9687 145.508 13.0847 145.129 13.3167C144.755 13.5487 144.452 13.8707 144.22 14.2826C143.992 14.6898 143.879 15.1609 143.879 15.696V22.5142H142.203ZM159.185 22.5142V11.6051H160.862V22.5142H159.185ZM160.038 9.78689C159.711 9.78689 159.429 9.67562 159.193 9.45308C158.961 9.23054 158.844 8.96302 158.844 8.65052C158.844 8.33802 158.961 8.0705 159.193 7.84797C159.429 7.62543 159.711 7.51416 160.038 7.51416C160.364 7.51416 160.644 7.62543 160.876 7.84797C161.112 8.0705 161.231 8.33802 161.231 8.65052C161.231 8.96302 161.112 9.23054 160.876 9.45308C160.644 9.67562 160.364 9.78689 160.038 9.78689ZM165.208 15.9517V22.5142H163.532V11.6051H165.151V13.3096H165.293C165.549 12.7556 165.937 12.3106 166.458 11.9744C166.978 11.6335 167.651 11.463 168.475 11.463C169.213 11.463 169.86 11.6145 170.414 11.9176C170.968 12.2159 171.398 12.6704 171.706 13.2812C172.014 13.8873 172.168 14.6543 172.168 15.5823V22.5142H170.492V15.696C170.492 14.839 170.269 14.1714 169.824 13.6931C169.379 13.2102 168.768 12.9687 167.992 12.9687C167.457 12.9687 166.978 13.0847 166.557 13.3167C166.14 13.5487 165.811 13.8873 165.57 14.3323C165.328 14.7774 165.208 15.3172 165.208 15.9517Z" fill="white"/>
<path fill-rule="evenodd" clip-rule="evenodd" d="M13.2021 2.41884C9.5552 3.12611 6.71606 5.57083 5.23434 7.61802L3.61418 6.44539C5.30833 4.10468 8.54936 1.28391 12.8214 0.455421C17.1668 -0.387316 22.3688 0.87074 27.8227 6.3246L26.4085 7.73881C21.3313 2.6617 16.7756 1.72581 13.2021 2.41884Z" fill="white"/>
<path fill-rule="evenodd" clip-rule="evenodd" d="M1.08458 9.5918L13.1993 12.8593C13.6744 12.9875 14.1344 13.2652 14.4417 13.671C14.7628 14.0951 14.9197 14.675 14.6929 15.283C14.1289 16.7946 12.4127 18.0758 8.89316 18.0347C6.31941 18.0046 4.72936 16.8151 3.84701 15.3024C3.14194 14.0936 2.9071 12.7163 2.90228 11.6357L0.69397 11.04L1.08458 9.5918ZM4.41753 12.0443C4.47266 12.8382 4.68116 13.7553 5.1427 14.5466C5.76689 15.6167 6.87887 16.511 8.91071 16.5348C12.0769 16.5718 13.0285 15.4529 13.2875 14.7586C13.3019 14.7201 13.3008 14.6969 13.2977 14.6802C13.2939 14.6596 13.2818 14.624 13.2458 14.5765C13.1683 14.4741 13.0122 14.3624 12.8087 14.3075L11.48 13.9492C10.7583 14.6007 10.0885 15.0167 9.45817 15.2053C8.70989 15.4291 8.03333 15.3245 7.48443 14.9551C6.96859 14.608 6.64016 14.0778 6.43302 13.5759C6.28825 13.2251 6.18926 12.856 6.12665 12.5053L4.41753 12.0443ZM7.82334 13.0127C7.96858 13.3613 8.1451 13.5917 8.32191 13.7107C8.46721 13.8085 8.67256 13.8746 9.02823 13.7682C9.19574 13.7181 9.39491 13.6294 9.62706 13.4867L7.82334 13.0127ZM29.0977 11.6357L31.306 11.04L30.9154 9.5918L18.8008 12.8593C18.3256 12.9875 17.8656 13.2652 17.5583 13.671C17.2372 14.0951 17.0803 14.675 17.3071 15.283C17.8711 16.7946 19.5873 18.0758 23.1069 18.0347C25.6806 18.0046 27.2707 16.8151 28.153 15.3024C28.8581 14.0936 29.0929 12.7163 29.0977 11.6357ZM27.5825 12.0443L25.8734 12.5053C25.8108 12.856 25.7118 13.2251 25.567 13.5759C25.3599 14.0778 25.0314 14.608 24.5156 14.9551C23.9667 15.3245 23.2901 15.4291 22.5418 15.2053C21.9116 15.0167 21.2417 14.6007 20.52 13.9492L19.1914 14.3075C18.9878 14.3624 18.8318 14.4741 18.7542 14.5765C18.7182 14.624 18.7062 14.6596 18.7024 14.6802C18.6993 14.6969 18.6981 14.7201 18.7125 14.7586C18.9715 15.4529 19.9231 16.5718 23.0893 16.5348C25.1211 16.511 26.2331 15.6167 26.8573 14.5466C27.3189 13.7553 27.5274 12.8382 27.5825 12.0443ZM22.373 13.4867C22.6051 13.6294 22.8043 13.7181 22.9718 13.7682C23.3275 13.8746 23.5328 13.8085 23.6781 13.7107C23.8549 13.5917 24.0314 13.3613 24.1767 13.0127L22.373 13.4867Z" fill="white"/>
<path fill-rule="evenodd" clip-rule="evenodd" d="M6.11321 21.1873C6.11292 21.1869 6.11298 21.187 6.11321 21.1873C6.11482 21.1897 6.12456 21.2041 6.14305 21.236C6.16366 21.2714 6.18922 21.3182 6.22021 21.378C6.28273 21.4985 6.35589 21.6496 6.44154 21.83C6.47623 21.9031 6.51281 21.9806 6.55097 22.0616C6.69579 22.3687 6.86359 22.7246 7.03895 23.0691C7.25883 23.5011 7.51495 23.9647 7.79127 24.3428C7.92958 24.532 8.09289 24.7276 8.28123 24.8923C8.46157 25.0501 8.73091 25.2379 9.08195 25.3059C10.0439 25.4921 10.6836 25.0708 11.0672 24.8045C11.2891 24.6504 11.4111 24.5684 11.5043 24.5262C11.5709 24.711 11.7093 25.0849 12.037 25.3912C12.4036 25.7339 12.8757 25.8818 13.3972 25.8932C13.8788 25.9037 14.2902 25.8165 14.65 25.6307C14.9908 25.4548 15.2214 25.2196 15.3549 25.0834L15.358 25.0803C15.5132 24.922 15.5443 24.8949 15.5788 24.8746C15.5833 24.8715 15.6242 24.8444 15.7699 24.8444V22.8444C15.3005 22.8444 14.9058 22.9502 14.5652 23.1504C14.2829 23.3164 14.0733 23.5324 13.9589 23.6503L13.93 23.68C13.8022 23.8103 13.7646 23.837 13.7325 23.8536C13.7167 23.8617 13.646 23.8981 13.4409 23.8937C13.4265 23.8934 13.4137 23.8928 13.4024 23.8921C13.3966 23.8772 13.39 23.8596 13.3826 23.839C13.3794 23.8302 13.3752 23.8179 13.3701 23.8027C13.327 23.6749 13.2141 23.3403 13.0056 23.0781C12.6874 22.678 12.2279 22.4847 11.7021 22.4847C10.8794 22.4847 10.3103 22.8892 10.0014 23.1088C9.97454 23.1279 9.94965 23.1456 9.92674 23.1615C9.72114 23.3042 9.63545 23.3472 9.5619 23.3524C9.52391 23.3133 9.47148 23.2522 9.40592 23.1625C9.22626 22.9168 9.02806 22.568 8.82135 22.1619C8.66115 21.8471 8.5105 21.5277 8.36704 21.2235C8.3269 21.1384 8.28733 21.0545 8.24827 20.9722C8.09286 20.6449 7.90314 20.2474 7.72911 20.0088L6.11321 21.1873ZM13.3295 23.8822L13.3319 23.8829C13.3302 23.8825 13.3294 23.8822 13.3295 23.8822ZM25.4266 21.1873C25.425 21.1897 25.4153 21.2041 25.3968 21.236C25.3762 21.2714 25.3506 21.3182 25.3196 21.378C25.2571 21.4985 25.1839 21.6496 25.0983 21.83C25.0636 21.9031 25.027 21.9807 24.9888 22.0616C24.844 22.3687 24.6762 22.7246 24.5009 23.0691C24.281 23.5011 24.0249 23.9647 23.7485 24.3428C23.6102 24.532 23.4469 24.7276 23.2586 24.8923C23.0783 25.0501 22.8089 25.2379 22.4579 25.3059C21.4959 25.4921 20.8562 25.0708 20.4726 24.8045C20.2507 24.6504 20.1288 24.5684 20.0355 24.5262C19.9689 24.711 19.8305 25.0849 19.5028 25.3912C19.1362 25.7339 18.6642 25.8818 18.1426 25.8932C17.661 25.9037 17.2496 25.8165 16.8899 25.6307C16.549 25.4548 16.3184 25.2196 16.1849 25.0834L16.1818 25.0803C16.0266 24.922 15.9956 24.8949 15.961 24.8746C15.9565 24.8715 15.9156 24.8444 15.7699 24.8444V22.8444C16.2393 22.8444 16.634 22.9502 16.9746 23.1504C17.2569 23.3164 17.4665 23.5324 17.5809 23.6503L17.6098 23.68C17.7376 23.8103 17.7752 23.837 17.8073 23.8536C17.8231 23.8617 17.8938 23.8981 18.099 23.8937C18.1133 23.8934 18.1261 23.8928 18.1374 23.8921C18.1432 23.8772 18.1498 23.8596 18.1573 23.839C18.1604 23.8302 18.1645 23.818 18.1696 23.803C18.2127 23.6752 18.3257 23.3403 18.5342 23.0781C18.8524 22.678 19.3119 22.4847 19.8377 22.4847C20.6604 22.4847 21.2295 22.8892 21.5384 23.1088C21.5653 23.1279 21.5902 23.1456 21.6131 23.1615C21.8187 23.3042 21.9044 23.3472 21.9779 23.3524C22.0159 23.3133 22.0683 23.2522 22.1339 23.1625C22.3136 22.9168 22.5118 22.568 22.7185 22.1619C22.8787 21.8471 23.0293 21.5277 23.1728 21.2235C23.2129 21.1384 23.2525 21.0545 23.2915 20.9722C23.447 20.6449 23.6367 20.2474 23.8107 20.0088L25.4266 21.1873C25.4269 21.187 25.4268 21.187 25.4266 21.1873ZM18.2104 23.8822L18.2079 23.8829C18.2096 23.8825 18.2104 23.8822 18.2104 23.8822Z" fill="white"/>
</g>
<defs>
<clipPath id="clip0_1_2">
<rect width="172" height="26" fill="white"/>
</clipPath>
</defs>
</svg>
